<svg xmlns="http://www.w3.org/2000/svg" xmlns:xlink="http://www.w3.org/1999/xlink" width="80" zoomAndPan="magnify" viewBox="0 0 60 37.5" height="50" preserveAspectRatio="xMidYMid meet" version="1.0"><defs><clipPath id="e4206fab8a"><path d="M 27 0 L 33 0 L 33 35.527344 L 27 35.527344 Z M 27 0 " clip-rule="nonzero"/></clipPath><clipPath id="9ad2a45482"><path d="M 57 15 L 59.605469 15 L 59.605469 21 L 57 21 Z M 57 15 " clip-rule="nonzero"/></clipPath><clipPath id="03781a37e6"><path d="M 0.394531 15 L 3 15 L 3 21 L 0.394531 21 Z M 0.394531 15 " clip-rule="nonzero"/></clipPath></defs><g clip-path="url(#e4206fab8a)"><path fill="#d90429" d="M 32.371094 33.804688 C 32.371094 34.753906 31.601562 35.527344 30.648438 35.527344 L 29.335938 35.527344 C 28.382812 35.527344 27.613281 34.753906 27.613281 33.804688 L 27.613281 1.714844 C 27.613281 0.765625 28.382812 -0.00390625 29.335938 -0.00390625 L 30.648438 -0.00390625 C 31.601562 -0.00390625 32.371094 0.765625 32.371094 1.714844 L 32.371094 33.804688 " fill-opacity="1" fill-rule="nonzero"/></g><path fill="#d90429" d="M 38.191406 29.453125 C 38.191406 30.402344 37.421875 31.171875 36.472656 31.171875 L 36.371094 31.171875 C 35.421875 31.171875 34.648438 30.402344 34.648438 29.453125 L 34.648438 6.070312 C 34.648438 5.117188 35.421875 4.347656 36.371094 4.347656 L 36.472656 4.347656 C 37.421875 4.347656 38.191406 5.117188 38.191406 6.070312 L 38.191406 29.453125 " fill-opacity="1" fill-rule="nonzero"/><path fill="#d90429" d="M 43.253906 24.949219 C 43.253906 25.84375 42.527344 26.566406 41.632812 26.566406 C 40.738281 26.566406 40.015625 25.84375 40.015625 24.949219 L 40.015625 10.574219 C 40.015625 9.679688 40.738281 8.953125 41.632812 8.953125 C 42.527344 8.953125 43.253906 9.679688 43.253906 10.574219 L 43.253906 24.949219 " fill-opacity="1" fill-rule="nonzero"/><path fill="#d90429" d="M 48.011719 28.894531 C 48.011719 29.679688 47.378906 30.3125 46.59375 30.3125 C 45.8125 30.3125 45.175781 29.679688 45.175781 28.894531 L 45.175781 6.625 C 45.175781 5.84375 45.8125 5.207031 46.59375 5.207031 C 47.378906 5.207031 48.011719 5.84375 48.011719 6.625 L 48.011719 28.894531 " fill-opacity="1" fill-rule="nonzero"/><path fill="#d90429" d="M 52.464844 22.621094 C 52.464844 23.347656 51.875 23.9375 51.148438 23.9375 C 50.421875 23.9375 49.832031 23.347656 49.832031 22.621094 L 49.832031 12.902344 C 49.832031 12.175781 50.421875 11.585938 51.148438 11.585938 C 51.875 11.585938 52.464844 12.175781 52.464844 12.902344 L 52.464844 22.621094 " fill-opacity="1" fill-rule="nonzero"/><path fill="#d90429" d="M 56.414062 21 C 56.414062 21.613281 55.914062 22.113281 55.300781 22.113281 C 54.683594 22.113281 54.1875 21.613281 54.1875 21 L 54.1875 14.519531 C 54.1875 13.90625 54.683594 13.40625 55.300781 13.40625 C 55.914062 13.40625 56.414062 13.90625 56.414062 14.519531 L 56.414062 21 " fill-opacity="1" fill-rule="nonzero"/><g clip-path="url(#9ad2a45482)"><path fill="#d90429" d="M 59.550781 19.53125 C 59.550781 20.035156 59.144531 20.441406 58.640625 20.441406 C 58.136719 20.441406 57.730469 20.035156 57.730469 19.53125 L 57.730469 15.988281 C 57.730469 15.484375 58.136719 15.078125 58.640625 15.078125 C 59.144531 15.078125 59.550781 15.484375 59.550781 15.988281 L 59.550781 19.53125 " fill-opacity="1" fill-rule="nonzero"/></g><path fill="#d90429" d="M 21.792969 29.453125 C 21.792969 30.402344 22.5625 31.171875 23.515625 31.171875 L 23.613281 31.171875 C 24.566406 31.171875 25.335938 30.402344 25.335938 29.453125 L 25.335938 6.070312 C 25.335938 5.117188 24.566406 4.347656 23.613281 4.347656 L 23.515625 4.347656 C 22.5625 4.347656 21.792969 5.117188 21.792969 6.070312 L 21.792969 29.453125 " fill-opacity="1" fill-rule="nonzero"/><path fill="#d90429" d="M 16.730469 24.949219 C 16.730469 25.84375 17.457031 26.566406 18.351562 26.566406 C 19.246094 26.566406 19.972656 25.84375 19.972656 24.949219 L 19.972656 10.574219 C 19.972656 9.679688 19.246094 8.953125 18.351562 8.953125 C 17.457031 8.953125 16.730469 9.679688 16.730469 10.574219 L 16.730469 24.949219 " fill-opacity="1" fill-rule="nonzero"/><path fill="#d90429" d="M 11.972656 28.894531 C 11.972656 29.679688 12.609375 30.3125 13.390625 30.3125 C 14.175781 30.3125 14.808594 29.679688 14.808594 28.894531 L 14.808594 6.625 C 14.808594 5.84375 14.175781 5.207031 13.390625 5.207031 C 12.609375 5.207031 11.972656 5.84375 11.972656 6.625 L 11.972656 28.894531 " fill-opacity="1" fill-rule="nonzero"/><path fill="#d90429" d="M 7.519531 22.621094 C 7.519531 23.347656 8.109375 23.9375 8.835938 23.9375 C 9.5625 23.9375 10.152344 23.347656 10.152344 22.621094 L 10.152344 12.902344 C 10.152344 12.175781 9.5625 11.585938 8.835938 11.585938 C 8.109375 11.585938 7.519531 12.175781 7.519531 12.902344 L 7.519531 22.621094 " fill-opacity="1" fill-rule="nonzero"/><path fill="#d90429" d="M 3.570312 21 C 3.570312 21.613281 4.070312 22.113281 4.683594 22.113281 C 5.300781 22.113281 5.800781 21.613281 5.800781 21 L 5.800781 14.519531 C 5.800781 13.90625 5.300781 13.40625 4.683594 13.40625 C 4.070312 13.40625 3.570312 13.90625 3.570312 14.519531 L 3.570312 21 " fill-opacity="1" fill-rule="nonzero"/><g clip-path="url(#03781a37e6)"><path fill="#d90429" d="M 0.433594 19.53125 C 0.433594 20.035156 0.839844 20.441406 1.34375 20.441406 C 1.847656 20.441406 2.253906 20.035156 2.253906 19.53125 L 2.253906 15.988281 C 2.253906 15.484375 1.847656 15.078125 1.34375 15.078125 C 0.839844 15.078125 0.433594 15.484375 0.433594 15.988281 L 0.433594 19.53125 " fill-opacity="1" fill-rule="nonzero"/></g></svg>