<svg xmlns="http://www.w3.org/2000/svg" xmlns:xlink="http://www.w3.org/1999/xlink" width="80" zoomAndPan="magnify" viewBox="0 0 60 37.5" height="50" preserveAspectRatio="xMidYMid meet" version="1.0"><defs><clipPath id="fdc477ea5c"><path d="M 27 0.738281 L 33 0.738281 L 33 36.265625 L 27 36.265625 Z M 27 0.738281 " clip-rule="nonzero"/></clipPath><clipPath id="4d5dfa529d"><path d="M 57 15 L 59.605469 15 L 59.605469 22 L 57 22 Z M 57 15 " clip-rule="nonzero"/></clipPath><clipPath id="95ad730162"><path d="M 0.394531 15 L 3 15 L 3 22 L 0.394531 22 Z M 0.394531 15 " clip-rule="nonzero"/></clipPath></defs><g clip-path="url(#fdc477ea5c)"><path fill="#ffb703" d="M 32.371094 34.546875 C 32.371094 35.496094 31.601562 36.265625 30.648438 36.265625 L 29.335938 36.265625 C 28.382812 36.265625 27.613281 35.496094 27.613281 34.546875 L 27.613281 2.457031 C 27.613281 1.503906 28.382812 0.734375 29.335938 0.734375 L 30.648438 0.734375 C 31.601562 0.734375 32.371094 1.503906 32.371094 2.457031 L 32.371094 34.546875 " fill-opacity="1" fill-rule="nonzero"/></g><path fill="#ffb703" d="M 38.191406 30.191406 C 38.191406 31.140625 37.421875 31.914062 36.472656 31.914062 L 36.371094 31.914062 C 35.421875 31.914062 34.648438 31.140625 34.648438 30.191406 L 34.648438 6.808594 C 34.648438 5.859375 35.421875 5.085938 36.371094 5.085938 L 36.472656 5.085938 C 37.421875 5.085938 38.191406 5.859375 38.191406 6.808594 L 38.191406 30.191406 " fill-opacity="1" fill-rule="nonzero"/><path fill="#ffb703" d="M 43.253906 25.6875 C 43.253906 26.582031 42.527344 27.308594 41.632812 27.308594 C 40.738281 27.308594 40.015625 26.582031 40.015625 25.6875 L 40.015625 11.3125 C 40.015625 10.417969 40.738281 9.695312 41.632812 9.695312 C 42.527344 9.695312 43.253906 10.417969 43.253906 11.3125 L 43.253906 25.6875 " fill-opacity="1" fill-rule="nonzero"/><path fill="#ffb703" d="M 48.011719 29.636719 C 48.011719 30.417969 47.378906 31.054688 46.59375 31.054688 C 45.8125 31.054688 45.175781 30.417969 45.175781 29.636719 L 45.175781 7.367188 C 45.175781 6.582031 45.8125 5.949219 46.59375 5.949219 C 47.378906 5.949219 48.011719 6.582031 48.011719 7.367188 L 48.011719 29.636719 " fill-opacity="1" fill-rule="nonzero"/><path fill="#ffb703" d="M 52.464844 23.359375 C 52.464844 24.085938 51.875 24.675781 51.148438 24.675781 C 50.421875 24.675781 49.832031 24.085938 49.832031 23.359375 L 49.832031 13.640625 C 49.832031 12.914062 50.421875 12.324219 51.148438 12.324219 C 51.875 12.324219 52.464844 12.914062 52.464844 13.640625 L 52.464844 23.359375 " fill-opacity="1" fill-rule="nonzero"/><path fill="#ffb703" d="M 56.414062 21.742188 C 56.414062 22.355469 55.914062 22.855469 55.300781 22.855469 C 54.683594 22.855469 54.1875 22.355469 54.1875 21.742188 L 54.1875 15.261719 C 54.1875 14.648438 54.683594 14.148438 55.300781 14.148438 C 55.914062 14.148438 56.414062 14.648438 56.414062 15.261719 L 56.414062 21.742188 " fill-opacity="1" fill-rule="nonzero"/><g clip-path="url(#4d5dfa529d)"><path fill="#ffb703" d="M 59.550781 20.273438 C 59.550781 20.777344 59.144531 21.183594 58.640625 21.183594 C 58.136719 21.183594 57.730469 20.777344 57.730469 20.273438 L 57.730469 16.730469 C 57.730469 16.226562 58.136719 15.820312 58.640625 15.820312 C 59.144531 15.820312 59.550781 16.226562 59.550781 16.730469 L 59.550781 20.273438 " fill-opacity="1" fill-rule="nonzero"/></g><path fill="#ffb703" d="M 21.792969 30.191406 C 21.792969 31.140625 22.5625 31.914062 23.515625 31.914062 L 23.613281 31.914062 C 24.566406 31.914062 25.335938 31.140625 25.335938 30.191406 L 25.335938 6.808594 C 25.335938 5.859375 24.566406 5.085938 23.613281 5.085938 L 23.515625 5.085938 C 22.5625 5.085938 21.792969 5.859375 21.792969 6.808594 L 21.792969 30.191406 " fill-opacity="1" fill-rule="nonzero"/><path fill="#ffb703" d="M 16.730469 25.6875 C 16.730469 26.582031 17.457031 27.308594 18.351562 27.308594 C 19.246094 27.308594 19.972656 26.582031 19.972656 25.6875 L 19.972656 11.3125 C 19.972656 10.417969 19.246094 9.695312 18.351562 9.695312 C 17.457031 9.695312 16.730469 10.417969 16.730469 11.3125 L 16.730469 25.6875 " fill-opacity="1" fill-rule="nonzero"/><path fill="#ffb703" d="M 11.972656 29.636719 C 11.972656 30.417969 12.609375 31.054688 13.390625 31.054688 C 14.175781 31.054688 14.808594 30.417969 14.808594 29.636719 L 14.808594 7.367188 C 14.808594 6.582031 14.175781 5.949219 13.390625 5.949219 C 12.609375 5.949219 11.972656 6.582031 11.972656 7.367188 L 11.972656 29.636719 " fill-opacity="1" fill-rule="nonzero"/><path fill="#ffb703" d="M 7.519531 23.359375 C 7.519531 24.085938 8.109375 24.675781 8.835938 24.675781 C 9.5625 24.675781 10.152344 24.085938 10.152344 23.359375 L 10.152344 13.640625 C 10.152344 12.914062 9.5625 12.324219 8.835938 12.324219 C 8.109375 12.324219 7.519531 12.914062 7.519531 13.640625 L 7.519531 23.359375 " fill-opacity="1" fill-rule="nonzero"/><path fill="#ffb703" d="M 3.570312 21.742188 C 3.570312 22.355469 4.070312 22.855469 4.683594 22.855469 C 5.300781 22.855469 5.800781 22.355469 5.800781 21.742188 L 5.800781 15.261719 C 5.800781 14.648438 5.300781 14.148438 4.683594 14.148438 C 4.070312 14.148438 3.570312 14.648438 3.570312 15.261719 L 3.570312 21.742188 " fill-opacity="1" fill-rule="nonzero"/><g clip-path="url(#95ad730162)"><path fill="#ffb703" d="M 0.433594 20.273438 C 0.433594 20.777344 0.839844 21.183594 1.34375 21.183594 C 1.847656 21.183594 2.253906 20.777344 2.253906 20.273438 L 2.253906 16.730469 C 2.253906 16.226562 1.847656 15.820312 1.34375 15.820312 C 0.839844 15.820312 0.433594 16.226562 0.433594 16.730469 L 0.433594 20.273438 " fill-opacity="1" fill-rule="nonzero"/></g></svg>