<svg xmlns="http://www.w3.org/2000/svg" xmlns:xlink="http://www.w3.org/1999/xlink" width="200" zoomAndPan="magnify" viewBox="0 0 150 77.999999" height="104" preserveAspectRatio="xMidYMid meet" version="1.0"><defs><g/><clipPath id="ec3ef60d6f"><path d="M 72 0 L 78 0 L 78 36.75 L 72 36.75 Z M 72 0 " clip-rule="nonzero"/></clipPath><clipPath id="61b83d1bd7"><path d="M 103 15 L 104.980469 15 L 104.980469 22 L 103 22 Z M 103 15 " clip-rule="nonzero"/></clipPath><clipPath id="3576e45445"><path d="M 44.230469 15 L 47 15 L 47 22 L 44.230469 22 Z M 44.230469 15 " clip-rule="nonzero"/></clipPath></defs><g clip-path="url(#ec3ef60d6f)"><path fill="#d90429" d="M 77.039062 34.96875 C 77.039062 35.953125 76.25 36.75 75.273438 36.75 L 73.925781 36.75 C 72.949219 36.75 72.160156 35.953125 72.160156 34.96875 L 72.160156 1.777344 C 72.160156 0.792969 72.949219 -0.00390625 73.925781 -0.00390625 L 75.273438 -0.00390625 C 76.25 -0.00390625 77.039062 0.792969 77.039062 1.777344 L 77.039062 34.96875 " fill-opacity="1" fill-rule="nonzero"/></g><path fill="#d90429" d="M 83.011719 30.464844 C 83.011719 31.449219 82.21875 32.246094 81.246094 32.246094 L 81.140625 32.246094 C 80.167969 32.246094 79.375 31.449219 79.375 30.464844 L 79.375 6.277344 C 79.375 5.296875 80.167969 4.496094 81.140625 4.496094 L 81.246094 4.496094 C 82.21875 4.496094 83.011719 5.296875 83.011719 6.277344 L 83.011719 30.464844 " fill-opacity="1" fill-rule="nonzero"/><path fill="#d90429" d="M 88.203125 25.808594 C 88.203125 26.730469 87.460938 27.484375 86.542969 27.484375 C 85.625 27.484375 84.878906 26.730469 84.878906 25.808594 L 84.878906 10.9375 C 84.878906 10.011719 85.625 9.261719 86.542969 9.261719 C 87.460938 9.261719 88.203125 10.011719 88.203125 10.9375 L 88.203125 25.808594 " fill-opacity="1" fill-rule="nonzero"/><path fill="#d90429" d="M 93.085938 29.890625 C 93.085938 30.699219 92.433594 31.355469 91.632812 31.355469 C 90.828125 31.355469 90.175781 30.699219 90.175781 29.890625 L 90.175781 6.851562 C 90.175781 6.042969 90.828125 5.386719 91.632812 5.386719 C 92.433594 5.386719 93.085938 6.042969 93.085938 6.851562 L 93.085938 29.890625 " fill-opacity="1" fill-rule="nonzero"/><path fill="#d90429" d="M 97.65625 23.398438 C 97.65625 24.148438 97.050781 24.761719 96.304688 24.761719 C 95.558594 24.761719 94.953125 24.148438 94.953125 23.398438 L 94.953125 13.347656 C 94.953125 12.59375 95.558594 11.984375 96.304688 11.984375 C 97.050781 11.984375 97.65625 12.59375 97.65625 13.347656 L 97.65625 23.398438 " fill-opacity="1" fill-rule="nonzero"/><path fill="#d90429" d="M 101.703125 21.722656 C 101.703125 22.359375 101.191406 22.875 100.5625 22.875 C 99.933594 22.875 99.421875 22.359375 99.421875 21.722656 L 99.421875 15.019531 C 99.421875 14.386719 99.933594 13.871094 100.5625 13.871094 C 101.191406 13.871094 101.703125 14.386719 101.703125 15.019531 L 101.703125 21.722656 " fill-opacity="1" fill-rule="nonzero"/><g clip-path="url(#61b83d1bd7)"><path fill="#d90429" d="M 104.925781 20.203125 C 104.925781 20.726562 104.507812 21.148438 103.988281 21.148438 C 103.472656 21.148438 103.054688 20.726562 103.054688 20.203125 L 103.054688 16.539062 C 103.054688 16.019531 103.472656 15.597656 103.988281 15.597656 C 104.507812 15.597656 104.925781 16.019531 104.925781 16.539062 L 104.925781 20.203125 " fill-opacity="1" fill-rule="nonzero"/></g><path fill="#d90429" d="M 66.1875 30.464844 C 66.1875 31.449219 66.976562 32.246094 67.953125 32.246094 L 68.054688 32.246094 C 69.03125 32.246094 69.820312 31.449219 69.820312 30.464844 L 69.820312 6.277344 C 69.820312 5.296875 69.03125 4.496094 68.054688 4.496094 L 67.953125 4.496094 C 66.976562 4.496094 66.1875 5.296875 66.1875 6.277344 L 66.1875 30.464844 " fill-opacity="1" fill-rule="nonzero"/><path fill="#d90429" d="M 60.992188 25.808594 C 60.992188 26.730469 61.738281 27.484375 62.65625 27.484375 C 63.574219 27.484375 64.316406 26.730469 64.316406 25.808594 L 64.316406 10.9375 C 64.316406 10.011719 63.574219 9.261719 62.65625 9.261719 C 61.738281 9.261719 60.992188 10.011719 60.992188 10.9375 L 60.992188 25.808594 " fill-opacity="1" fill-rule="nonzero"/><path fill="#d90429" d="M 56.113281 29.890625 C 56.113281 30.699219 56.761719 31.355469 57.566406 31.355469 C 58.371094 31.355469 59.019531 30.699219 59.019531 29.890625 L 59.019531 6.851562 C 59.019531 6.042969 58.371094 5.386719 57.566406 5.386719 C 56.761719 5.386719 56.113281 6.042969 56.113281 6.851562 L 56.113281 29.890625 " fill-opacity="1" fill-rule="nonzero"/><path fill="#d90429" d="M 51.542969 23.398438 C 51.542969 24.148438 52.148438 24.761719 52.894531 24.761719 C 53.640625 24.761719 54.242188 24.148438 54.242188 23.398438 L 54.242188 13.347656 C 54.242188 12.59375 53.640625 11.984375 52.894531 11.984375 C 52.148438 11.984375 51.542969 12.59375 51.542969 13.347656 L 51.542969 23.398438 " fill-opacity="1" fill-rule="nonzero"/><path fill="#d90429" d="M 47.492188 21.722656 C 47.492188 22.359375 48.003906 22.875 48.636719 22.875 C 49.265625 22.875 49.777344 22.359375 49.777344 21.722656 L 49.777344 15.019531 C 49.777344 14.386719 49.265625 13.871094 48.636719 13.871094 C 48.003906 13.871094 47.492188 14.386719 47.492188 15.019531 L 47.492188 21.722656 " fill-opacity="1" fill-rule="nonzero"/><g clip-path="url(#3576e45445)"><path fill="#d90429" d="M 44.273438 20.203125 C 44.273438 20.726562 44.691406 21.148438 45.207031 21.148438 C 45.722656 21.148438 46.140625 20.726562 46.140625 20.203125 L 46.140625 16.539062 C 46.140625 16.019531 45.722656 15.597656 45.207031 15.597656 C 44.691406 15.597656 44.273438 16.019531 44.273438 16.539062 L 44.273438 20.203125 " fill-opacity="1" fill-rule="nonzero"/></g><g fill="#2b2d42" fill-opacity="1"><g transform="translate(23.210655, 62.757393)"><g><path d="M 7.546875 -3.734375 L 5.375 -3.734375 L 5.375 0 L 1.40625 0 L 1.40625 -14.0625 L 7.828125 -14.0625 C 9.097656 -14.0625 10.203125 -13.847656 11.140625 -13.421875 C 12.078125 -13.003906 12.800781 -12.398438 13.3125 -11.609375 C 13.820312 -10.828125 14.078125 -9.910156 14.078125 -8.859375 C 14.078125 -7.835938 13.835938 -6.945312 13.359375 -6.1875 C 12.890625 -5.4375 12.210938 -4.847656 11.328125 -4.421875 L 14.359375 0 L 10.09375 0 Z M 10.0625 -8.859375 C 10.0625 -9.515625 9.851562 -10.019531 9.4375 -10.375 C 9.019531 -10.738281 8.40625 -10.921875 7.59375 -10.921875 L 5.375 -10.921875 L 5.375 -6.8125 L 7.59375 -6.8125 C 8.40625 -6.8125 9.019531 -6.988281 9.4375 -7.34375 C 9.851562 -7.695312 10.0625 -8.203125 10.0625 -8.859375 Z M 10.0625 -8.859375 "/></g></g></g><g fill="#2b2d42" fill-opacity="1"><g transform="translate(40.0722, 62.757393)"><g><path d="M 14.78125 -14.0625 L 14.78125 0 L 10.796875 0 L 10.796875 -5.484375 L 5.375 -5.484375 L 5.375 0 L 1.40625 0 L 1.40625 -14.0625 L 5.375 -14.0625 L 5.375 -8.78125 L 10.796875 -8.78125 L 10.796875 -14.0625 Z M 14.78125 -14.0625 "/></g></g></g><g fill="#2b2d42" fill-opacity="1"><g transform="translate(58.258552, 62.757393)"><g><path d="M 8.9375 -5.046875 L 8.9375 0 L 4.953125 0 L 4.953125 -5.09375 L -0.40625 -14.0625 L 3.796875 -14.0625 L 7.125 -8.46875 L 10.453125 -14.0625 L 14.3125 -14.0625 Z M 8.9375 -5.046875 "/></g></g></g><g fill="#2b2d42" fill-opacity="1"><g transform="translate(74.176671, 62.757393)"><g><path d="M 4.390625 -10.90625 L 0.078125 -10.90625 L 0.078125 -14.0625 L 12.671875 -14.0625 L 12.671875 -10.90625 L 8.375 -10.90625 L 8.375 0 L 4.390625 0 Z M 4.390625 -10.90625 "/></g></g></g><g fill="#2b2d42" fill-opacity="1"><g transform="translate(88.930565, 62.757393)"><g><path d="M 14.78125 -14.0625 L 14.78125 0 L 10.796875 0 L 10.796875 -5.484375 L 5.375 -5.484375 L 5.375 0 L 1.40625 0 L 1.40625 -14.0625 L 5.375 -14.0625 L 5.375 -8.78125 L 10.796875 -8.78125 L 10.796875 -14.0625 Z M 14.78125 -14.0625 "/></g></g></g><g fill="#2b2d42" fill-opacity="1"><g transform="translate(107.116921, 62.757393)"><g><path d="M 14.09375 0 L 14.0625 -7.453125 L 10.4375 -1.390625 L 8.671875 -1.390625 L 5.078125 -7.25 L 5.078125 0 L 1.40625 0 L 1.40625 -14.0625 L 4.671875 -14.0625 L 9.625 -5.9375 L 14.4375 -14.0625 L 17.703125 -14.0625 L 17.75 0 Z M 14.09375 0 "/></g></g></g><g fill="#d90429" fill-opacity="1"><g transform="translate(44.87168, 75.92037)"><g><path d="M 5.515625 0 L 5.5 -3.21875 L 3.921875 -0.5625 L 3.375 -0.5625 L 1.796875 -3.140625 L 1.796875 0 L 0.640625 0 L 0.640625 -5.359375 L 1.65625 -5.359375 L 3.671875 -2.03125 L 5.640625 -5.359375 L 6.65625 -5.359375 L 6.671875 0 Z M 5.515625 0 "/></g></g></g><g fill="#d90429" fill-opacity="1"><g transform="translate(52.940054, 75.92037)"><g><path d="M 3.015625 0.09375 C 2.253906 0.09375 1.660156 -0.113281 1.234375 -0.53125 C 0.804688 -0.957031 0.59375 -1.566406 0.59375 -2.359375 L 0.59375 -5.359375 L 1.828125 -5.359375 L 1.828125 -2.40625 C 1.828125 -1.445312 2.226562 -0.96875 3.03125 -0.96875 C 3.414062 -0.96875 3.707031 -1.082031 3.90625 -1.3125 C 4.113281 -1.539062 4.21875 -1.90625 4.21875 -2.40625 L 4.21875 -5.359375 L 5.4375 -5.359375 L 5.4375 -2.359375 C 5.4375 -1.566406 5.222656 -0.957031 4.796875 -0.53125 C 4.378906 -0.113281 3.785156 0.09375 3.015625 0.09375 Z M 3.015625 0.09375 "/></g></g></g><g fill="#d90429" fill-opacity="1"><g transform="translate(59.731415, 75.92037)"><g><path d="M 2.390625 0.09375 C 1.972656 0.09375 1.566406 0.0351562 1.171875 -0.078125 C 0.773438 -0.191406 0.457031 -0.34375 0.21875 -0.53125 L 0.640625 -1.46875 C 0.867188 -1.289062 1.140625 -1.148438 1.453125 -1.046875 C 1.765625 -0.953125 2.082031 -0.90625 2.40625 -0.90625 C 2.757812 -0.90625 3.019531 -0.957031 3.1875 -1.0625 C 3.351562 -1.164062 3.4375 -1.304688 3.4375 -1.484375 C 3.4375 -1.609375 3.382812 -1.710938 3.28125 -1.796875 C 3.1875 -1.878906 3.0625 -1.945312 2.90625 -2 C 2.75 -2.050781 2.539062 -2.109375 2.28125 -2.171875 C 1.863281 -2.265625 1.523438 -2.359375 1.265625 -2.453125 C 1.003906 -2.554688 0.78125 -2.710938 0.59375 -2.921875 C 0.414062 -3.140625 0.328125 -3.425781 0.328125 -3.78125 C 0.328125 -4.09375 0.410156 -4.375 0.578125 -4.625 C 0.742188 -4.875 0.992188 -5.070312 1.328125 -5.21875 C 1.671875 -5.375 2.085938 -5.453125 2.578125 -5.453125 C 2.921875 -5.453125 3.253906 -5.410156 3.578125 -5.328125 C 3.910156 -5.242188 4.195312 -5.128906 4.4375 -4.984375 L 4.0625 -4.03125 C 3.5625 -4.3125 3.066406 -4.453125 2.578125 -4.453125 C 2.222656 -4.453125 1.960938 -4.394531 1.796875 -4.28125 C 1.628906 -4.175781 1.546875 -4.03125 1.546875 -3.84375 C 1.546875 -3.65625 1.640625 -3.515625 1.828125 -3.421875 C 2.023438 -3.335938 2.320312 -3.253906 2.71875 -3.171875 C 3.125 -3.078125 3.457031 -2.976562 3.71875 -2.875 C 3.976562 -2.78125 4.203125 -2.628906 4.390625 -2.421875 C 4.578125 -2.210938 4.671875 -1.925781 4.671875 -1.5625 C 4.671875 -1.257812 4.582031 -0.984375 4.40625 -0.734375 C 4.238281 -0.484375 3.984375 -0.28125 3.640625 -0.125 C 3.296875 0.0195312 2.878906 0.09375 2.390625 0.09375 Z M 2.390625 0.09375 "/></g></g></g><g fill="#d90429" fill-opacity="1"><g transform="translate(65.375758, 75.92037)"><g><path d="M 0.640625 -5.359375 L 1.875 -5.359375 L 1.875 0 L 0.640625 0 Z M 0.640625 -5.359375 "/></g></g></g><g fill="#d90429" fill-opacity="1"><g transform="translate(68.649601, 75.92037)"><g><path d="M 3.203125 0.09375 C 2.648438 0.09375 2.15625 -0.0234375 1.71875 -0.265625 C 1.28125 -0.503906 0.929688 -0.832031 0.671875 -1.25 C 0.421875 -1.675781 0.296875 -2.15625 0.296875 -2.6875 C 0.296875 -3.207031 0.421875 -3.675781 0.671875 -4.09375 C 0.929688 -4.519531 1.28125 -4.851562 1.71875 -5.09375 C 2.15625 -5.332031 2.648438 -5.453125 3.203125 -5.453125 C 3.671875 -5.453125 4.09375 -5.367188 4.46875 -5.203125 C 4.84375 -5.046875 5.15625 -4.8125 5.40625 -4.5 L 4.609375 -3.765625 C 4.253906 -4.179688 3.804688 -4.390625 3.265625 -4.390625 C 2.929688 -4.390625 2.632812 -4.316406 2.375 -4.171875 C 2.113281 -4.023438 1.910156 -3.820312 1.765625 -3.5625 C 1.617188 -3.300781 1.546875 -3.007812 1.546875 -2.6875 C 1.546875 -2.351562 1.617188 -2.054688 1.765625 -1.796875 C 1.910156 -1.535156 2.113281 -1.332031 2.375 -1.1875 C 2.632812 -1.039062 2.929688 -0.96875 3.265625 -0.96875 C 3.804688 -0.96875 4.253906 -1.175781 4.609375 -1.59375 L 5.40625 -0.859375 C 5.15625 -0.546875 4.835938 -0.304688 4.453125 -0.140625 C 4.078125 0.015625 3.660156 0.09375 3.203125 0.09375 Z M 3.203125 0.09375 "/></g></g></g><g fill="#d90429" fill-opacity="1"><g transform="translate(75.020389, 75.92037)"><g/></g></g><g fill="#d90429" fill-opacity="1"><g transform="translate(77.95013, 75.92037)"><g><path d="M 3.203125 0.09375 C 2.648438 0.09375 2.15625 -0.0234375 1.71875 -0.265625 C 1.28125 -0.503906 0.929688 -0.832031 0.671875 -1.25 C 0.421875 -1.675781 0.296875 -2.15625 0.296875 -2.6875 C 0.296875 -3.207031 0.421875 -3.675781 0.671875 -4.09375 C 0.929688 -4.519531 1.28125 -4.851562 1.71875 -5.09375 C 2.15625 -5.332031 2.648438 -5.453125 3.203125 -5.453125 C 3.671875 -5.453125 4.09375 -5.367188 4.46875 -5.203125 C 4.84375 -5.046875 5.15625 -4.8125 5.40625 -4.5 L 4.609375 -3.765625 C 4.253906 -4.179688 3.804688 -4.390625 3.265625 -4.390625 C 2.929688 -4.390625 2.632812 -4.316406 2.375 -4.171875 C 2.113281 -4.023438 1.910156 -3.820312 1.765625 -3.5625 C 1.617188 -3.300781 1.546875 -3.007812 1.546875 -2.6875 C 1.546875 -2.351562 1.617188 -2.054688 1.765625 -1.796875 C 1.910156 -1.535156 2.113281 -1.332031 2.375 -1.1875 C 2.632812 -1.039062 2.929688 -0.96875 3.265625 -0.96875 C 3.804688 -0.96875 4.253906 -1.175781 4.609375 -1.59375 L 5.40625 -0.859375 C 5.15625 -0.546875 4.835938 -0.304688 4.453125 -0.140625 C 4.078125 0.015625 3.660156 0.09375 3.203125 0.09375 Z M 3.203125 0.09375 "/></g></g></g><g fill="#d90429" fill-opacity="1"><g transform="translate(84.320917, 75.92037)"><g><path d="M 4.171875 -1.15625 L 1.671875 -1.15625 L 1.203125 0 L -0.0625 0 L 2.3125 -5.359375 L 3.546875 -5.359375 L 5.9375 0 L 4.640625 0 Z M 3.78125 -2.09375 L 2.921875 -4.140625 L 2.078125 -2.09375 Z M 3.78125 -2.09375 "/></g></g></g><g fill="#d90429" fill-opacity="1"><g transform="translate(90.944046, 75.92037)"><g><path d="M 5.515625 0 L 5.5 -3.21875 L 3.921875 -0.5625 L 3.375 -0.5625 L 1.796875 -3.140625 L 1.796875 0 L 0.640625 0 L 0.640625 -5.359375 L 1.65625 -5.359375 L 3.671875 -2.03125 L 5.640625 -5.359375 L 6.65625 -5.359375 L 6.671875 0 Z M 5.515625 0 "/></g></g></g><g fill="#d90429" fill-opacity="1"><g transform="translate(99.012418, 75.92037)"><g><path d="M 2.953125 -5.359375 C 3.429688 -5.359375 3.84375 -5.28125 4.1875 -5.125 C 4.539062 -4.96875 4.8125 -4.742188 5 -4.453125 C 5.1875 -4.160156 5.28125 -3.816406 5.28125 -3.421875 C 5.28125 -3.023438 5.1875 -2.675781 5 -2.375 C 4.8125 -2.082031 4.539062 -1.859375 4.1875 -1.703125 C 3.84375 -1.554688 3.429688 -1.484375 2.953125 -1.484375 L 1.875 -1.484375 L 1.875 0 L 0.640625 0 L 0.640625 -5.359375 Z M 2.890625 -2.484375 C 3.265625 -2.484375 3.546875 -2.5625 3.734375 -2.71875 C 3.929688 -2.882812 4.03125 -3.117188 4.03125 -3.421875 C 4.03125 -3.710938 3.929688 -3.9375 3.734375 -4.09375 C 3.546875 -4.257812 3.265625 -4.34375 2.890625 -4.34375 L 1.875 -4.34375 L 1.875 -2.484375 Z M 2.890625 -2.484375 "/></g></g></g></svg>