<svg xmlns="http://www.w3.org/2000/svg" xmlns:xlink="http://www.w3.org/1999/xlink" width="595" zoomAndPan="magnify" viewBox="0 0 446.25 268.499992" height="358" preserveAspectRatio="xMidYMid meet" version="1.0"><defs><g/><clipPath id="da79a07cf7"><path d="M 217 37.507812 L 230 37.507812 L 230 128.089844 L 217 128.089844 Z M 217 37.507812 " clip-rule="nonzero"/></clipPath><clipPath id="84383858c0"><path d="M 293 75 L 298.785156 75 L 298.785156 90 L 293 90 Z M 293 75 " clip-rule="nonzero"/></clipPath><clipPath id="337fbe449c"><path d="M 147.566406 75 L 153 75 L 153 90 L 147.566406 90 Z M 147.566406 75 " clip-rule="nonzero"/></clipPath></defs><g clip-path="url(#da79a07cf7)"><path fill="#ffb703" d="M 229.234375 123.699219 C 229.234375 126.125 227.265625 128.089844 224.835938 128.089844 L 221.480469 128.089844 C 219.050781 128.089844 217.082031 126.125 217.082031 123.699219 L 217.082031 41.886719 C 217.082031 39.460938 219.050781 37.496094 221.480469 37.496094 L 224.835938 37.496094 C 227.265625 37.496094 229.234375 39.460938 229.234375 41.886719 L 229.234375 123.699219 " fill-opacity="1" fill-rule="nonzero"/></g><path fill="#ffb703" d="M 244.097656 112.601562 C 244.097656 115.027344 242.132812 116.992188 239.703125 116.992188 L 239.445312 116.992188 C 237.019531 116.992188 235.050781 115.027344 235.050781 112.601562 L 235.050781 52.984375 C 235.050781 50.558594 237.019531 48.59375 239.445312 48.59375 L 239.703125 48.59375 C 242.132812 48.59375 244.097656 50.558594 244.097656 52.984375 L 244.097656 112.601562 " fill-opacity="1" fill-rule="nonzero"/><path fill="#ffb703" d="M 257.027344 101.117188 C 257.027344 103.398438 255.171875 105.246094 252.886719 105.246094 C 250.605469 105.246094 248.753906 103.398438 248.753906 101.117188 L 248.753906 64.46875 C 248.753906 62.1875 250.605469 60.339844 252.886719 60.339844 C 255.171875 60.339844 257.027344 62.1875 257.027344 64.46875 L 257.027344 101.117188 " fill-opacity="1" fill-rule="nonzero"/><path fill="#ffb703" d="M 269.175781 111.183594 C 269.175781 113.179688 267.554688 114.796875 265.554688 114.796875 C 263.558594 114.796875 261.9375 113.179688 261.9375 111.183594 L 261.9375 54.402344 C 261.9375 52.40625 263.558594 50.789062 265.554688 50.789062 C 267.554688 50.789062 269.175781 52.40625 269.175781 54.402344 L 269.175781 111.183594 " fill-opacity="1" fill-rule="nonzero"/><path fill="#ffb703" d="M 280.550781 95.179688 C 280.550781 97.035156 279.046875 98.539062 277.191406 98.539062 C 275.332031 98.539062 273.828125 97.035156 273.828125 95.179688 L 273.828125 70.402344 C 273.828125 68.550781 275.332031 67.046875 277.191406 67.046875 C 279.046875 67.046875 280.550781 68.550781 280.550781 70.402344 L 280.550781 95.179688 " fill-opacity="1" fill-rule="nonzero"/><path fill="#ffb703" d="M 290.632812 91.054688 C 290.632812 92.621094 289.359375 93.890625 287.789062 93.890625 C 286.21875 93.890625 284.945312 92.621094 284.945312 91.054688 L 284.945312 74.535156 C 284.945312 72.964844 286.21875 71.695312 287.789062 71.695312 C 289.359375 71.695312 290.632812 72.964844 290.632812 74.535156 L 290.632812 91.054688 " fill-opacity="1" fill-rule="nonzero"/><g clip-path="url(#84383858c0)"><path fill="#ffb703" d="M 298.648438 87.308594 C 298.648438 88.59375 297.605469 89.632812 296.320312 89.632812 C 295.039062 89.632812 293.996094 88.59375 293.996094 87.308594 L 293.996094 78.277344 C 293.996094 76.992188 295.039062 75.953125 296.320312 75.953125 C 297.605469 75.953125 298.648438 76.992188 298.648438 78.277344 L 298.648438 87.308594 " fill-opacity="1" fill-rule="nonzero"/></g><path fill="#ffb703" d="M 202.21875 112.601562 C 202.21875 115.027344 204.183594 116.992188 206.613281 116.992188 L 206.867188 116.992188 C 209.296875 116.992188 211.265625 115.027344 211.265625 112.601562 L 211.265625 52.984375 C 211.265625 50.558594 209.296875 48.59375 206.867188 48.59375 L 206.613281 48.59375 C 204.183594 48.59375 202.21875 50.558594 202.21875 52.984375 L 202.21875 112.601562 " fill-opacity="1" fill-rule="nonzero"/><path fill="#ffb703" d="M 189.289062 101.117188 C 189.289062 103.398438 191.140625 105.246094 193.425781 105.246094 C 195.710938 105.246094 197.5625 103.398438 197.5625 101.117188 L 197.5625 64.46875 C 197.5625 62.1875 195.710938 60.339844 193.425781 60.339844 C 191.140625 60.339844 189.289062 62.1875 189.289062 64.46875 L 189.289062 101.117188 " fill-opacity="1" fill-rule="nonzero"/><path fill="#ffb703" d="M 177.136719 111.183594 C 177.136719 113.179688 178.757812 114.796875 180.757812 114.796875 C 182.757812 114.796875 184.378906 113.179688 184.378906 111.183594 L 184.378906 54.402344 C 184.378906 52.40625 182.757812 50.789062 180.757812 50.789062 C 178.757812 50.789062 177.136719 52.40625 177.136719 54.402344 L 177.136719 111.183594 " fill-opacity="1" fill-rule="nonzero"/><path fill="#ffb703" d="M 165.761719 95.179688 C 165.761719 97.035156 167.269531 98.539062 169.125 98.539062 C 170.980469 98.539062 172.484375 97.035156 172.484375 95.179688 L 172.484375 70.402344 C 172.484375 68.550781 170.980469 67.046875 169.125 67.046875 C 167.269531 67.046875 165.761719 68.550781 165.761719 70.402344 L 165.761719 95.179688 " fill-opacity="1" fill-rule="nonzero"/><path fill="#ffb703" d="M 155.679688 91.054688 C 155.679688 92.621094 156.953125 93.890625 158.523438 93.890625 C 160.09375 93.890625 161.371094 92.621094 161.371094 91.054688 L 161.371094 74.535156 C 161.371094 72.964844 160.09375 71.695312 158.523438 71.695312 C 156.953125 71.695312 155.679688 72.964844 155.679688 74.535156 L 155.679688 91.054688 " fill-opacity="1" fill-rule="nonzero"/><g clip-path="url(#337fbe449c)"><path fill="#ffb703" d="M 147.667969 87.308594 C 147.667969 88.59375 148.707031 89.632812 149.992188 89.632812 C 151.277344 89.632812 152.320312 88.59375 152.320312 87.308594 L 152.320312 78.277344 C 152.320312 76.992188 151.277344 75.953125 149.992188 75.953125 C 148.707031 75.953125 147.667969 76.992188 147.667969 78.277344 L 147.667969 87.308594 " fill-opacity="1" fill-rule="nonzero"/></g><g fill="#e9f6ee" fill-opacity="1"><g transform="translate(95.551161, 192.802614)"><g><path d="M 18.671875 -9.234375 L 13.3125 -9.234375 L 13.3125 0 L 3.484375 0 L 3.484375 -34.765625 L 19.375 -34.765625 C 22.519531 -34.765625 25.25 -34.242188 27.5625 -33.203125 C 29.882812 -32.160156 31.671875 -30.671875 32.921875 -28.734375 C 34.179688 -26.796875 34.8125 -24.519531 34.8125 -21.90625 C 34.8125 -19.382812 34.222656 -17.1875 33.046875 -15.3125 C 31.878906 -13.445312 30.203125 -11.984375 28.015625 -10.921875 L 35.515625 0 L 24.984375 0 Z M 24.890625 -21.90625 C 24.890625 -23.53125 24.375 -24.785156 23.34375 -25.671875 C 22.320312 -26.566406 20.800781 -27.015625 18.78125 -27.015625 L 13.3125 -27.015625 L 13.3125 -16.84375 L 18.78125 -16.84375 C 20.800781 -16.84375 22.320312 -17.28125 23.34375 -18.15625 C 24.375 -19.03125 24.890625 -20.28125 24.890625 -21.90625 Z M 24.890625 -21.90625 "/></g></g></g><g fill="#e9f6ee" fill-opacity="1"><g transform="translate(137.275272, 192.802614)"><g><path d="M 36.5625 -34.765625 L 36.5625 0 L 26.71875 0 L 26.71875 -13.5625 L 13.3125 -13.5625 L 13.3125 0 L 3.484375 0 L 3.484375 -34.765625 L 13.3125 -34.765625 L 13.3125 -21.703125 L 26.71875 -21.703125 L 26.71875 -34.765625 Z M 36.5625 -34.765625 "/></g></g></g><g fill="#e9f6ee" fill-opacity="1"><g transform="translate(182.277636, 192.802614)"><g><path d="M 22.109375 -12.46875 L 22.109375 0 L 12.265625 0 L 12.265625 -12.609375 L -1 -34.765625 L 9.390625 -34.765625 L 17.640625 -20.96875 L 25.875 -34.765625 L 35.421875 -34.765625 Z M 22.109375 -12.46875 "/></g></g></g><g fill="#e9f6ee" fill-opacity="1"><g transform="translate(221.667229, 192.802614)"><g><path d="M 10.875 -26.96875 L 0.203125 -26.96875 L 0.203125 -34.765625 L 31.34375 -34.765625 L 31.34375 -26.96875 L 20.71875 -26.96875 L 20.71875 0 L 10.875 0 Z M 10.875 -26.96875 "/></g></g></g><g fill="#e9f6ee" fill-opacity="1"><g transform="translate(258.17593, 192.802614)"><g><path d="M 36.5625 -34.765625 L 36.5625 0 L 26.71875 0 L 26.71875 -13.5625 L 13.3125 -13.5625 L 13.3125 0 L 3.484375 0 L 3.484375 -34.765625 L 13.3125 -34.765625 L 13.3125 -21.703125 L 26.71875 -21.703125 L 26.71875 -34.765625 Z M 36.5625 -34.765625 "/></g></g></g><g fill="#e9f6ee" fill-opacity="1"><g transform="translate(303.178304, 192.802614)"><g><path d="M 34.875 0 L 34.765625 -18.421875 L 25.828125 -3.421875 L 21.453125 -3.421875 L 12.5625 -17.9375 L 12.5625 0 L 3.484375 0 L 3.484375 -34.765625 L 11.578125 -34.765625 L 23.796875 -14.703125 L 35.71875 -34.765625 L 43.8125 -34.765625 L 43.90625 0 Z M 34.875 0 "/></g></g></g><g fill="#ffb703" fill-opacity="1"><g transform="translate(149.151653, 225.374604)"><g><path d="M 13.640625 0 L 13.609375 -7.953125 L 9.71875 -1.40625 L 8.328125 -1.40625 L 4.453125 -7.78125 L 4.453125 0 L 1.578125 0 L 1.578125 -13.25 L 4.109375 -13.25 L 9.078125 -5.015625 L 13.953125 -13.25 L 16.46875 -13.25 L 16.515625 0 Z M 13.640625 0 "/></g></g></g><g fill="#ffb703" fill-opacity="1"><g transform="translate(169.116949, 225.374604)"><g><path d="M 7.46875 0.234375 C 5.570312 0.234375 4.09375 -0.289062 3.03125 -1.34375 C 1.976562 -2.394531 1.453125 -3.890625 1.453125 -5.828125 L 1.453125 -13.25 L 4.53125 -13.25 L 4.53125 -5.953125 C 4.53125 -3.578125 5.515625 -2.390625 7.484375 -2.390625 C 8.441406 -2.390625 9.171875 -2.675781 9.671875 -3.25 C 10.179688 -3.820312 10.4375 -4.722656 10.4375 -5.953125 L 10.4375 -13.25 L 13.46875 -13.25 L 13.46875 -5.828125 C 13.46875 -3.890625 12.9375 -2.394531 11.875 -1.34375 C 10.820312 -0.289062 9.351562 0.234375 7.46875 0.234375 Z M 7.46875 0.234375 "/></g></g></g><g fill="#ffb703" fill-opacity="1"><g transform="translate(185.922259, 225.374604)"><g><path d="M 5.921875 0.234375 C 4.878906 0.234375 3.867188 0.09375 2.890625 -0.1875 C 1.910156 -0.476562 1.125 -0.851562 0.53125 -1.3125 L 1.578125 -3.609375 C 2.140625 -3.191406 2.8125 -2.859375 3.59375 -2.609375 C 4.375 -2.359375 5.160156 -2.234375 5.953125 -2.234375 C 6.816406 -2.234375 7.457031 -2.363281 7.875 -2.625 C 8.289062 -2.882812 8.5 -3.226562 8.5 -3.65625 C 8.5 -3.96875 8.375 -4.226562 8.125 -4.4375 C 7.882812 -4.644531 7.570312 -4.8125 7.1875 -4.9375 C 6.800781 -5.0625 6.28125 -5.203125 5.625 -5.359375 C 4.613281 -5.597656 3.785156 -5.835938 3.140625 -6.078125 C 2.492188 -6.316406 1.941406 -6.703125 1.484375 -7.234375 C 1.023438 -7.765625 0.796875 -8.472656 0.796875 -9.359375 C 0.796875 -10.128906 1.003906 -10.828125 1.421875 -11.453125 C 1.835938 -12.078125 2.460938 -12.570312 3.296875 -12.9375 C 4.140625 -13.300781 5.164062 -13.484375 6.375 -13.484375 C 7.226562 -13.484375 8.054688 -13.378906 8.859375 -13.171875 C 9.671875 -12.972656 10.378906 -12.6875 10.984375 -12.3125 L 10.03125 -9.984375 C 8.8125 -10.671875 7.585938 -11.015625 6.359375 -11.015625 C 5.503906 -11.015625 4.867188 -10.875 4.453125 -10.59375 C 4.046875 -10.320312 3.84375 -9.957031 3.84375 -9.5 C 3.84375 -9.050781 4.078125 -8.710938 4.546875 -8.484375 C 5.023438 -8.265625 5.75 -8.050781 6.71875 -7.84375 C 7.726562 -7.601562 8.554688 -7.363281 9.203125 -7.125 C 9.847656 -6.882812 10.398438 -6.503906 10.859375 -5.984375 C 11.316406 -5.460938 11.546875 -4.757812 11.546875 -3.875 C 11.546875 -3.125 11.332031 -2.4375 10.90625 -1.8125 C 10.488281 -1.1875 9.859375 -0.6875 9.015625 -0.3125 C 8.171875 0.0507812 7.140625 0.234375 5.921875 0.234375 Z M 5.921875 0.234375 "/></g></g></g><g fill="#ffb703" fill-opacity="1"><g transform="translate(199.889258, 225.374604)"><g><path d="M 1.578125 -13.25 L 4.640625 -13.25 L 4.640625 0 L 1.578125 0 Z M 1.578125 -13.25 "/></g></g></g><g fill="#ffb703" fill-opacity="1"><g transform="translate(207.990425, 225.374604)"><g><path d="M 7.921875 0.234375 C 6.566406 0.234375 5.34375 -0.0546875 4.25 -0.640625 C 3.15625 -1.234375 2.296875 -2.050781 1.671875 -3.09375 C 1.046875 -4.132812 0.734375 -5.3125 0.734375 -6.625 C 0.734375 -7.9375 1.046875 -9.113281 1.671875 -10.15625 C 2.296875 -11.195312 3.15625 -12.007812 4.25 -12.59375 C 5.34375 -13.1875 6.570312 -13.484375 7.9375 -13.484375 C 9.082031 -13.484375 10.117188 -13.28125 11.046875 -12.875 C 11.972656 -12.46875 12.753906 -11.890625 13.390625 -11.140625 L 11.421875 -9.3125 C 10.523438 -10.351562 9.414062 -10.875 8.09375 -10.875 C 7.269531 -10.875 6.535156 -10.691406 5.890625 -10.328125 C 5.242188 -9.972656 4.738281 -9.472656 4.375 -8.828125 C 4.019531 -8.179688 3.84375 -7.445312 3.84375 -6.625 C 3.84375 -5.800781 4.019531 -5.066406 4.375 -4.421875 C 4.738281 -3.785156 5.242188 -3.285156 5.890625 -2.921875 C 6.535156 -2.566406 7.269531 -2.390625 8.09375 -2.390625 C 9.414062 -2.390625 10.523438 -2.910156 11.421875 -3.953125 L 13.390625 -2.140625 C 12.753906 -1.367188 11.96875 -0.78125 11.03125 -0.375 C 10.101562 0.03125 9.066406 0.234375 7.921875 0.234375 Z M 7.921875 0.234375 "/></g></g></g><g fill="#ffb703" fill-opacity="1"><g transform="translate(223.755024, 225.374604)"><g/></g></g><g fill="#ffb703" fill-opacity="1"><g transform="translate(231.004706, 225.374604)"><g><path d="M 7.921875 0.234375 C 6.566406 0.234375 5.34375 -0.0546875 4.25 -0.640625 C 3.15625 -1.234375 2.296875 -2.050781 1.671875 -3.09375 C 1.046875 -4.132812 0.734375 -5.3125 0.734375 -6.625 C 0.734375 -7.9375 1.046875 -9.113281 1.671875 -10.15625 C 2.296875 -11.195312 3.15625 -12.007812 4.25 -12.59375 C 5.34375 -13.1875 6.570312 -13.484375 7.9375 -13.484375 C 9.082031 -13.484375 10.117188 -13.28125 11.046875 -12.875 C 11.972656 -12.46875 12.753906 -11.890625 13.390625 -11.140625 L 11.421875 -9.3125 C 10.523438 -10.351562 9.414062 -10.875 8.09375 -10.875 C 7.269531 -10.875 6.535156 -10.691406 5.890625 -10.328125 C 5.242188 -9.972656 4.738281 -9.472656 4.375 -8.828125 C 4.019531 -8.179688 3.84375 -7.445312 3.84375 -6.625 C 3.84375 -5.800781 4.019531 -5.066406 4.375 -4.421875 C 4.738281 -3.785156 5.242188 -3.285156 5.890625 -2.921875 C 6.535156 -2.566406 7.269531 -2.390625 8.09375 -2.390625 C 9.414062 -2.390625 10.523438 -2.910156 11.421875 -3.953125 L 13.390625 -2.140625 C 12.753906 -1.367188 11.96875 -0.78125 11.03125 -0.375 C 10.101562 0.03125 9.066406 0.234375 7.921875 0.234375 Z M 7.921875 0.234375 "/></g></g></g><g fill="#ffb703" fill-opacity="1"><g transform="translate(246.769301, 225.374604)"><g><path d="M 10.296875 -2.84375 L 4.140625 -2.84375 L 2.96875 0 L -0.171875 0 L 5.734375 -13.25 L 8.765625 -13.25 L 14.703125 0 L 11.46875 0 Z M 9.34375 -5.171875 L 7.234375 -10.25 L 5.125 -5.171875 Z M 9.34375 -5.171875 "/></g></g></g><g fill="#ffb703" fill-opacity="1"><g transform="translate(263.158318, 225.374604)"><g><path d="M 13.640625 0 L 13.609375 -7.953125 L 9.71875 -1.40625 L 8.328125 -1.40625 L 4.453125 -7.78125 L 4.453125 0 L 1.578125 0 L 1.578125 -13.25 L 4.109375 -13.25 L 9.078125 -5.015625 L 13.953125 -13.25 L 16.46875 -13.25 L 16.515625 0 Z M 13.640625 0 "/></g></g></g><g fill="#ffb703" fill-opacity="1"><g transform="translate(283.123611, 225.374604)"><g><path d="M 7.3125 -13.25 C 8.488281 -13.25 9.507812 -13.050781 10.375 -12.65625 C 11.238281 -12.269531 11.898438 -11.71875 12.359375 -11 C 12.828125 -10.28125 13.0625 -9.429688 13.0625 -8.453125 C 13.0625 -7.472656 12.828125 -6.617188 12.359375 -5.890625 C 11.898438 -5.171875 11.238281 -4.617188 10.375 -4.234375 C 9.507812 -3.847656 8.488281 -3.65625 7.3125 -3.65625 L 4.640625 -3.65625 L 4.640625 0 L 1.578125 0 L 1.578125 -13.25 Z M 7.140625 -6.15625 C 8.054688 -6.15625 8.753906 -6.351562 9.234375 -6.75 C 9.722656 -7.144531 9.96875 -7.710938 9.96875 -8.453125 C 9.96875 -9.191406 9.722656 -9.757812 9.234375 -10.15625 C 8.753906 -10.550781 8.054688 -10.75 7.140625 -10.75 L 4.640625 -10.75 L 4.640625 -6.15625 Z M 7.140625 -6.15625 "/></g></g></g></svg>